<mxfile host="app.diagrams.net" agent="Mozilla/5.0 (Windows NT 10.0; Win64; x64) AppleWebKit/537.36 (KHTML, like Gecko) Chrome/136.0.0.0 Safari/537.36" version="26.2.1">
  <diagram name="Page-1" id="Ifc5ZpYXXSdHE8ShBEyO">
    <mxGraphModel dx="3841" dy="708" grid="1" gridSize="10" guides="1" tooltips="1" connect="1" arrows="1" fold="1" page="1" pageScale="1" pageWidth="827" pageHeight="1169" math="0" shadow="0">
      <root>
        <mxCell id="0" />
        <mxCell id="1" parent="0" />
        <mxCell id="qF5azGhZ5NjrPz0XNZ-u-1" value="Raspberry PI 1" style="ellipse;whiteSpace=wrap;html=1;aspect=fixed;" vertex="1" parent="1">
          <mxGeometry x="-2370" y="590" width="110" height="110" as="geometry" />
        </mxCell>
        <mxCell id="qF5azGhZ5NjrPz0XNZ-u-2" value="" style="endArrow=classic;html=1;rounded=0;entryX=1;entryY=1;entryDx=0;entryDy=0;" edge="1" parent="1" target="qF5azGhZ5NjrPz0XNZ-u-18">
          <mxGeometry width="50" height="50" relative="1" as="geometry">
            <mxPoint x="-2310" y="590" as="sourcePoint" />
            <mxPoint x="-2235" y="540" as="targetPoint" />
            <Array as="points" />
          </mxGeometry>
        </mxCell>
        <mxCell id="qF5azGhZ5NjrPz0XNZ-u-3" value="HF5111S" style="rounded=1;whiteSpace=wrap;html=1;" vertex="1" parent="1">
          <mxGeometry x="-2180" y="470" width="120" height="60" as="geometry" />
        </mxCell>
        <mxCell id="qF5azGhZ5NjrPz0XNZ-u-4" value="Compteur&amp;nbsp;" style="rounded=0;whiteSpace=wrap;html=1;" vertex="1" parent="1">
          <mxGeometry x="-2340" y="290" width="120" height="60" as="geometry" />
        </mxCell>
        <mxCell id="qF5azGhZ5NjrPz0XNZ-u-5" value="" style="endArrow=classic;html=1;rounded=0;entryX=0.809;entryY=1.017;entryDx=0;entryDy=0;entryPerimeter=0;exitX=0;exitY=0;exitDx=0;exitDy=0;" edge="1" parent="1" source="qF5azGhZ5NjrPz0XNZ-u-3" target="qF5azGhZ5NjrPz0XNZ-u-4">
          <mxGeometry width="50" height="50" relative="1" as="geometry">
            <mxPoint x="-2210" y="400" as="sourcePoint" />
            <mxPoint x="-2160" y="350" as="targetPoint" />
          </mxGeometry>
        </mxCell>
        <mxCell id="qF5azGhZ5NjrPz0XNZ-u-7" value="" style="endArrow=classic;html=1;rounded=0;exitX=1;exitY=0.5;exitDx=0;exitDy=0;entryX=0.145;entryY=0;entryDx=0;entryDy=4.35;entryPerimeter=0;" edge="1" parent="1" source="qF5azGhZ5NjrPz0XNZ-u-15" target="qF5azGhZ5NjrPz0XNZ-u-17">
          <mxGeometry width="50" height="50" relative="1" as="geometry">
            <mxPoint x="-1880" y="610" as="sourcePoint" />
            <mxPoint x="-1830" y="610" as="targetPoint" />
            <Array as="points">
              <mxPoint x="-1751" y="753" />
            </Array>
          </mxGeometry>
        </mxCell>
        <mxCell id="qF5azGhZ5NjrPz0XNZ-u-10" value="" style="endArrow=classic;html=1;rounded=0;exitX=0.5;exitY=1;exitDx=0;exitDy=0;" edge="1" parent="1" source="qF5azGhZ5NjrPz0XNZ-u-15" target="qF5azGhZ5NjrPz0XNZ-u-16">
          <mxGeometry width="50" height="50" relative="1" as="geometry">
            <mxPoint x="-1890" y="800" as="sourcePoint" />
            <mxPoint x="-1937" y="720" as="targetPoint" />
            <Array as="points">
              <mxPoint x="-1890" y="890" />
            </Array>
          </mxGeometry>
        </mxCell>
        <mxCell id="qF5azGhZ5NjrPz0XNZ-u-11" value="" style="endArrow=classic;html=1;rounded=0;entryX=0.5;entryY=1;entryDx=0;entryDy=0;exitX=0.5;exitY=0;exitDx=0;exitDy=0;" edge="1" parent="1" source="qF5azGhZ5NjrPz0XNZ-u-15" target="qF5azGhZ5NjrPz0XNZ-u-14">
          <mxGeometry width="50" height="50" relative="1" as="geometry">
            <mxPoint x="-1860" y="540" as="sourcePoint" />
            <mxPoint x="-1810" y="490" as="targetPoint" />
            <Array as="points" />
          </mxGeometry>
        </mxCell>
        <mxCell id="qF5azGhZ5NjrPz0XNZ-u-12" value="" style="endArrow=classic;html=1;rounded=0;entryX=0;entryY=0.5;entryDx=0;entryDy=0;" edge="1" parent="1" target="qF5azGhZ5NjrPz0XNZ-u-14">
          <mxGeometry width="50" height="50" relative="1" as="geometry">
            <mxPoint x="-2060" y="499.52" as="sourcePoint" />
            <mxPoint x="-1980" y="499.52" as="targetPoint" />
          </mxGeometry>
        </mxCell>
        <mxCell id="qF5azGhZ5NjrPz0XNZ-u-13" value="" style="endArrow=classic;html=1;rounded=0;entryX=0.667;entryY=0;entryDx=0;entryDy=0;entryPerimeter=0;" edge="1" parent="1" target="qF5azGhZ5NjrPz0XNZ-u-3">
          <mxGeometry width="50" height="50" relative="1" as="geometry">
            <mxPoint x="-2220" y="350" as="sourcePoint" />
            <mxPoint x="-2170" y="300" as="targetPoint" />
          </mxGeometry>
        </mxCell>
        <mxCell id="qF5azGhZ5NjrPz0XNZ-u-26" value="" style="edgeStyle=orthogonalEdgeStyle;rounded=0;orthogonalLoop=1;jettySize=auto;html=1;" edge="1" parent="1" source="qF5azGhZ5NjrPz0XNZ-u-14" target="qF5azGhZ5NjrPz0XNZ-u-3">
          <mxGeometry relative="1" as="geometry" />
        </mxCell>
        <mxCell id="qF5azGhZ5NjrPz0XNZ-u-14" value="Broker MQTT" style="ellipse;whiteSpace=wrap;html=1;" vertex="1" parent="1">
          <mxGeometry x="-1950" y="460" width="120" height="80" as="geometry" />
        </mxCell>
        <mxCell id="qF5azGhZ5NjrPz0XNZ-u-15" value="Raspberry PI 2" style="ellipse;whiteSpace=wrap;html=1;aspect=fixed;" vertex="1" parent="1">
          <mxGeometry x="-1942.5" y="700" width="105" height="105" as="geometry" />
        </mxCell>
        <mxCell id="qF5azGhZ5NjrPz0XNZ-u-16" value="Thingsboards&amp;nbsp;&lt;div&gt;ou&lt;br&gt;IHM QT6&lt;/div&gt;" style="shape=process;whiteSpace=wrap;html=1;backgroundOutline=1;" vertex="1" parent="1">
          <mxGeometry x="-2270" y="810" width="237" height="150" as="geometry" />
        </mxCell>
        <mxCell id="qF5azGhZ5NjrPz0XNZ-u-17" value="Base de donné SQL" style="shape=cylinder3;whiteSpace=wrap;html=1;boundedLbl=1;backgroundOutline=1;size=15;" vertex="1" parent="1">
          <mxGeometry x="-1760" y="805" width="60" height="100" as="geometry" />
        </mxCell>
        <mxCell id="qF5azGhZ5NjrPz0XNZ-u-18" value="Requête Modbus" style="text;html=1;align=center;verticalAlign=middle;whiteSpace=wrap;rounded=0;rotation=-30;" vertex="1" parent="1">
          <mxGeometry x="-2333" y="530" width="148" height="30" as="geometry" />
        </mxCell>
        <mxCell id="qF5azGhZ5NjrPz0XNZ-u-19" value="Requête Modbus" style="text;html=1;align=center;verticalAlign=middle;whiteSpace=wrap;rounded=0;rotation=-120;" vertex="1" parent="1">
          <mxGeometry x="-2290" y="400" width="144" height="30" as="geometry" />
        </mxCell>
        <mxCell id="qF5azGhZ5NjrPz0XNZ-u-20" value="&lt;font style=&quot;font-size: 11px;&quot;&gt;Réponse de la requete modbus&lt;/font&gt;" style="text;html=1;align=center;verticalAlign=middle;whiteSpace=wrap;rounded=0;rotation=45;" vertex="1" parent="1">
          <mxGeometry x="-2250" y="390" width="187" height="30" as="geometry" />
        </mxCell>
        <mxCell id="qF5azGhZ5NjrPz0XNZ-u-22" value="S’abonne au topic &lt;code data-end=&quot;639&quot; data-start=&quot;630&quot;&gt;tdfwatt&lt;/code&gt;" style="text;html=1;align=center;verticalAlign=middle;whiteSpace=wrap;rounded=0;rotation=90;" vertex="1" parent="1">
          <mxGeometry x="-1970" y="610" width="180" height="30" as="geometry" />
        </mxCell>
        <mxCell id="qF5azGhZ5NjrPz0XNZ-u-23" value="Stockage sur la base de donné" style="text;html=1;align=center;verticalAlign=middle;whiteSpace=wrap;rounded=0;" vertex="1" parent="1">
          <mxGeometry x="-1837.5" y="730" width="180" height="30" as="geometry" />
        </mxCell>
        <mxCell id="qF5azGhZ5NjrPz0XNZ-u-24" value="publie sur un &lt;strong data-end=&quot;447&quot; data-start=&quot;432&quot;&gt;topic nommé&lt;/strong&gt; : &lt;code data-end=&quot;459&quot; data-start=&quot;450&quot;&gt;tdfwatt&lt;/code&gt;" style="text;html=1;align=center;verticalAlign=middle;whiteSpace=wrap;rounded=0;" vertex="1" parent="1">
          <mxGeometry x="-2090" y="360" width="178" height="90" as="geometry" />
        </mxCell>
        <mxCell id="qF5azGhZ5NjrPz0XNZ-u-25" value="" style="endArrow=classic;html=1;rounded=0;exitX=0.5;exitY=1;exitDx=0;exitDy=0;" edge="1" parent="1" source="qF5azGhZ5NjrPz0XNZ-u-24">
          <mxGeometry width="50" height="50" relative="1" as="geometry">
            <mxPoint x="-1989" y="450" as="sourcePoint" />
            <mxPoint x="-2000" y="500" as="targetPoint" />
          </mxGeometry>
        </mxCell>
      </root>
    </mxGraphModel>
  </diagram>
</mxfile>
